<svg width="28" height="26" viewBox="0 0 28 26" fill="none" xmlns="http://www.w3.org/2000/svg">
<g filter="url(#filter0_d_5159_159)">
<path d="M14 6.125C12.9616 6.125 11.9466 6.43291 11.0833 7.00978C10.2199 7.58666 9.54699 8.4066 9.14963 9.36591C8.75227 10.3252 8.64831 11.3808 8.85088 12.3992C9.05345 13.4176 9.55346 14.3531 10.2877 15.0873C11.0219 15.8215 11.9574 16.3216 12.9758 16.5241C13.9942 16.7267 15.0498 16.6227 16.0091 16.2254C16.9684 15.828 17.7883 15.1551 18.3652 14.2917C18.9421 13.4284 19.25 12.4134 19.25 11.375C19.2486 9.98306 18.695 8.64854 17.7107 7.66429C16.7265 6.68004 15.3919 6.12645 14 6.125ZM14 14.875C13.3078 14.875 12.6311 14.6697 12.0555 14.2851C11.4799 13.9006 11.0313 13.3539 10.7664 12.7144C10.5015 12.0749 10.4322 11.3711 10.5673 10.6922C10.7023 10.0133 11.0356 9.38961 11.5251 8.90013C12.0146 8.41064 12.6383 8.0773 13.3172 7.94225C13.9961 7.8072 14.6999 7.87651 15.3394 8.14142C15.9789 8.40633 16.5256 8.85493 16.9101 9.4305C17.2947 10.0061 17.5 10.6828 17.5 11.375C17.5 12.3033 17.1313 13.1935 16.4749 13.8499C15.8185 14.5063 14.9283 14.875 14 14.875ZM19.25 0H8.75C7.12608 0.00173712 5.56917 0.647606 4.42089 1.79589C3.27261 2.94417 2.62674 4.50108 2.625 6.125V16.625C2.62674 18.2489 3.27261 19.8058 4.42089 20.9541C5.56917 22.1024 7.12608 22.7483 8.75 22.75H19.25C20.8739 22.7483 22.4308 22.1024 23.5791 20.9541C24.7274 19.8058 25.3733 18.2489 25.375 16.625V6.125C25.3733 4.50108 24.7274 2.94417 23.5791 1.79589C22.4308 0.647606 20.8739 0.00173712 19.25 0ZM23.625 16.625C23.625 17.7853 23.1641 18.8981 22.3436 19.7186C21.5231 20.5391 20.4103 21 19.25 21H8.75C7.58968 21 6.47688 20.5391 5.65641 19.7186C4.83594 18.8981 4.375 17.7853 4.375 16.625V6.125C4.375 4.96468 4.83594 3.85188 5.65641 3.03141C6.47688 2.21094 7.58968 1.75 8.75 1.75H19.25C20.4103 1.75 21.5231 2.21094 22.3436 3.03141C23.1641 3.85188 23.625 4.96468 23.625 6.125V16.625ZM21 5.6875C21 5.94709 20.923 6.20085 20.7788 6.41669C20.6346 6.63253 20.4296 6.80075 20.1898 6.90009C19.9499 6.99943 19.686 7.02542 19.4314 6.97478C19.1768 6.92414 18.943 6.79913 18.7594 6.61558C18.5759 6.43202 18.4509 6.19816 18.4002 5.94356C18.3496 5.68896 18.3756 5.42506 18.4749 5.18523C18.5742 4.9454 18.7425 4.74042 18.9583 4.5962C19.1742 4.45198 19.4279 4.375 19.6875 4.375C20.0356 4.375 20.3694 4.51328 20.6156 4.75942C20.8617 5.00556 21 5.3394 21 5.6875Z" fill="#878EA1"/>
</g>
<defs>
<filter id="filter0_d_5159_159" x="-1.375" y="0" width="30.75" height="30.75" filterUnits="userSpaceOnUse" color-interpolation-filters="sRGB">
<feFlood flood-opacity="0" result="BackgroundImageFix"/>
<feColorMatrix in="SourceAlpha" type="matrix" values="0 0 0 0 0 0 0 0 0 0 0 0 0 0 0 0 0 0 127 0" result="hardAlpha"/>
<feOffset dy="4"/>
<feGaussianBlur stdDeviation="2"/>
<feComposite in2="hardAlpha" operator="out"/>
<feColorMatrix type="matrix" values="0 0 0 0 0 0 0 0 0 0 0 0 0 0 0 0 0 0 0.25 0"/>
<feBlend mode="normal" in2="BackgroundImageFix" result="effect1_dropShadow_5159_159"/>
<feBlend mode="normal" in="SourceGraphic" in2="effect1_dropShadow_5159_159" result="shape"/>
</filter>
</defs>
</svg>
